<svg xmlns="http://www.w3.org/2000/svg" version="1.1" xmlns:xlink="http://www.w3.org/1999/xlink" xmlns:svgjs="http://svgjs.dev/svgjs" width="1000" height="1000" viewBox="0 0 1000 1000"><rect width="1000" height="1000" fill="#ffffff"></rect><g transform="matrix(0.7,0,0,0.7,150.0000000000001,106.25)"><svg viewBox="0 0 320 360" data-background-color="#8b3c7f" preserveAspectRatio="xMidYMid meet" height="1125" width="1000" xmlns="http://www.w3.org/2000/svg" xmlns:xlink="http://www.w3.org/1999/xlink"><g id="tight-bounds" transform="matrix(1,0,0,1,0,0)"><svg viewBox="0 0 320 360" height="360" width="320"><g><svg></svg></g><g><svg viewBox="0 0 320 360" height="360" width="320"><g><path xmlns="http://www.w3.org/2000/svg" d="M20.961 227.22l3.726 4.658-1.863-6.056c-0.466-2.795-3.726 0.466-1.863 1.398M25.153 224.425c1.397 2.329 2.795 4.658 2.795 6.987 0 3.261 2.795 4.658 5.123 5.589-3.261-3.726-5.124-13.974-7.918-12.576M204.017 26.929c7.918 0 15.371-0.932 23.756 0.931 20.495 5.124 37.729 15.371 49.374 29.811l32.606 52.169c1.397 13.042 4.192 27.482 3.726 43.319 3.261 0 2.795-4.658 6.521-5.59-3.726 9.316-5.59 20.961-6.521 34.469-2.329-7.453 0-18.632 0.466-24.687-3.261 5.124-5.124 1.397-5.124-0.932 0.466-3.726-1.397-3.261-2.795-4.658-5.124-4.658-8.384-9.782-12.11-17.7 2.329-6.055 2.795-14.905-4.658-19.563-2.329-1.397-5.124-3.726-6.521-7.453-1.863-5.124-5.124-11.179-4.193-19.097 0.466-2.329-6.987 5.124-11.179 1.863-18.166-12.576-36.332-27.016-58.224-39.127-11.645 0-20.029-4.192-24.221-9.316-3.726-4.658-0.932-10.713 4.658-11.179 3.261 0 6.987-0.932 9.782 0.932 0.466-1.863 2.329-4.192 4.657-4.192M157.904 16.215l0.932 0.466c4.658 0.932 6.987 7.453 12.11 5.124 0 3.261 0.466 6.521-0.466 8.85-1.397 3.726-5.59 3.726-8.85 3.726-31.208-1.863-49.374 11.179-68.471 22.358-5.124 3.261-10.713 5.59-14.906 9.782-20.029 18.632-41.921 35.866-47.045 70.335l-4.192 38.195c-0.466 4.192-5.124 8.384-4.192 13.508l3.26 22.824c-3.261-3.261-5.124 0.932-4.192 2.795 0.466 1.397 2.329 6.055 5.124 1.863 3.726 6.987 7.453 20.495 12.576 26.55 15.837 18.632 36.332 35.4 53.101 52.169 4.192-0.932 7.453-0.932 8.384-3.727 1.397 2.795-1.397 5.59-3.726 6.056 7.453 4.658 15.837 8.85 27.016 9.781 14.44 0.932 27.948 3.261 40.524 6.522 6.521-1.863 13.042-2.795 20.029-3.261 2.329 0 3.726-3.726 6.521-4.658l0.466-4.658c2.795 4.192 2.329-1.397 0.466-4.192 3.261 2.795 4.192 5.124 5.589 6.987 0-1.397 3.726-6.521 3.727-0.466l0.931-6.055c1.397-0.932 1.863 5.124 3.261 0.931 1.397-4.192 4.192-0.932 6.987-2.329-0.932 1.863-0.466 5.59 2.794 3.261l3.727-3.261c2.329 5.59 6.055 3.261 7.918 2.329 20.495-13.042 40.99-28.413 60.553-43.784l-0.466 6.055 2.329-7.453c2.329 2.329 4.192 0.466 5.124-0.931 2.795-4.658 6.521-9.316 12.577-13.508-7.453 20.029-16.303 35.866-27.482 48.908l-4.658 5.59c0 3.261-0.932 7.453-4.658 7.918-1.863 0.466-5.59-0.932-8.384 1.863-1.397 1.863 3.261 5.59-0.466 2.795-3.261-2.329-6.521 0-10.248 0.932-2.795 0.932 1.863 3.726 2.795 5.589 0.932 1.863 1.863 3.726 1.398 6.056l-5.124-5.59c-6.055 3.261-9.782 9.316-14.906 13.974-2.329 1.863-1.397 5.124-1.397 7.918-3.261 0-6.987-0.932-8.85 0.932-1.397 1.863-0.932 4.658-0.932 7.453-4.658-0.466-5.124-7.453-9.315-6.056-4.192 0.932-8.85 1.397-12.577 3.727 2.795 5.59-4.658 2.329-3.726 3.26-6.987-4.192-13.042-7.453-20.495-4.658-15.837-5.124-35.4-2.795-49.84-0.931 0-2.329 0.466-4.658-0.466-5.124-0.932 2.329-3.726 1.397-3.26 1.397-8.85-6.055-17.7-9.782-27.016-14.905-8.384 0.932-16.303-3.261-18.632-5.59-6.521-6.055-13.974-2.795-20.029-4.192-13.042-3.261-17.7-16.769-19.098-26.084-0.932-4.658-4.658-6.521-6.055-6.056-6.055-19.563-15.371-37.263-22.824-55.429-1.863-4.658-1.397-9.316-1.397-14.44 2.329 0.932 4.658 0.466 4.192-2.794-2.329-15.371-7.918-27.016-13.974-38.195 3.261-15.837 3.726-34.469 11.179-48.443 6.521-12.576 18.632-19.098 27.016-29.811 2.795-3.726 2.795-8.85 5.59-12.11 9.316-9.316 18.632-19.098 28.879-27.482 4.658-3.726 10.247 0 17.234-1.397 2.329-8.384 11.645-15.837 20.495-13.508 3.726 0.932 11.179-8.85 13.508-9.782 3.726-1.397 1.863 3.726 1.863 6.987 8.85-6.987 20.961-10.713 32.14-14.906" fill="#000000" fill-rule="nonzero" stroke="none" stroke-width="1" stroke-linecap="butt" stroke-linejoin="miter" stroke-miterlimit="10" stroke-dasharray="" stroke-dashoffset="0" font-family="none" font-weight="none" font-size="none" text-anchor="none" style="mix-blend-mode: normal" data-fill-palette-color="tertiary"></path></g><g transform="matrix(1,0,0,1,85.77157802964254,90)"><svg viewBox="0 0 148.45684394071492 180" height="180" width="148.45684394071492"><g><svg viewBox="0 0 148.45684394071492 180" height="180" width="148.45684394071492"><g><svg viewBox="0 0 148.45684394071492 180" height="180" width="148.45684394071492"><g><svg viewBox="0 0 148.45684394071492 180" height="180" width="148.45684394071492"><g id="textblocktransform"><svg viewBox="0 0 148.45684394071492 180" height="180" width="148.45684394071492" id="textblock"><g><svg viewBox="0 0 148.45684394071492 180" height="180" width="148.45684394071492"><g transform="matrix(1,0,0,1,0,0)"><svg width="148.45684394071492" viewBox="2.490000009536743 -46.2400016784668 46.189998626708984 56.01000213623047" height="180" data-palette-color="#ffffff"><path d="M48.68-11.18L48.68-11.18Q48.68-10.21 48.36-9.59 48.05-8.98 47.66-8.2L47.66-8.2Q47.56-8.25 47.41-8.25L47.41-8.25Q47.12-8.25 46.88-8.11 46.63-7.96 46.39-7.86L46.39-7.86Q44.97-6.3 43.48-4.83 41.99-3.37 40.19-2.25L40.19-2.25Q39.7-1.95 39.21-1.68 38.72-1.42 38.18-1.17L38.18-1.17Q37.99-1.07 37.82-1 37.65-0.93 37.5-0.83L37.5-0.83Q37.16-0.63 36.79-0.2 36.43 0.24 35.96 0.71 35.5 1.17 34.96 1.49 34.42 1.81 33.79 1.76L33.79 1.76Q33.4 2 33.11 2.39 32.81 2.78 32.42 3.17L32.42 3.17Q30.32 3.91 28.59 5.1 26.86 6.3 25 7.42L25 7.42Q23.88 8.15 22.75 8.59L22.75 8.59Q22.51 8.69 22.19 8.74 21.88 8.79 21.53 8.89L21.53 8.89Q19.92 9.28 18.29 9.52 16.65 9.77 14.99 9.77L14.99 9.77Q12.94 9.77 11.04 9.28L11.04 9.28Q11.04 9.13 10.94 9.08 10.84 9.03 10.72 8.98 10.6 8.94 10.5 8.86 10.4 8.79 10.5 8.59L10.5 8.59Q9.42 8.5 8.62 8.06 7.81 7.62 7.57 6.49L7.57 6.49Q7.42 6.59 7.32 6.74 7.23 6.88 6.98 6.84L6.98 6.84Q6.3 5.86 5.47 5.03 4.64 4.2 4.25 3.03L4.25 3.03Q4.15 2.78 4.13 2.56 4.1 2.34 4.05 2.1L4.05 2.1Q3.81 1.42 3.17 1.42L3.17 1.42Q3.27 1.22 3.27 0.93L3.27 0.93Q3.27 0.78 3.25 0.63 3.22 0.49 3.22 0.34L3.22 0.34Q3.22 0.1 3.37-0.15L3.37-0.15Q2.88-1.27 2.69-2.37 2.49-3.47 2.49-4.64L2.49-4.64Q2.49-6.15 2.64-7.64 2.78-9.13 2.78-10.64L2.78-10.64Q3.08-11.23 3.25-12.01 3.42-12.79 3.86-13.28L3.86-13.28Q3.81-13.57 3.66-13.6 3.52-13.62 3.52-13.87L3.52-13.87Q3.52-14.75 3.86-15.77 4.2-16.8 4.2-17.87L4.2-17.87Q4.64-18.12 4.76-18.6 4.88-19.09 5.27-19.38L5.27-19.38 5.27-19.63Q5.27-20.36 5.44-21.09 5.62-21.83 5.79-22.53 5.96-23.24 6.08-23.95 6.2-24.66 6.15-25.34L6.15-25.34Q6.25-25.49 6.42-25.9 6.59-26.32 6.76-26.78 6.93-27.25 7.06-27.69 7.18-28.13 7.18-28.32L7.18-28.32Q7.18-28.61 7.08-28.86 6.98-29.1 6.98-29.39L6.98-29.39Q6.98-29.64 7.13-30.1 7.28-30.57 7.37-30.86L7.37-30.86Q7.57-31.69 7.74-32.59 7.91-33.5 8.06-34.33L8.06-34.33Q8.5-37.01 8.69-39.72 8.89-42.43 8.94-45.17L8.94-45.17Q9.62-45.56 10.38-45.9 11.13-46.24 11.96-46.24L11.96-46.24Q12.21-46.24 12.45-46.19 12.7-46.14 12.94-46.04L12.94-46.04Q13.18-45.07 13.72-44.48 14.26-43.9 14.7-43.07L14.7-43.07Q14.4-42.29 14.31-41.46L14.31-41.46 14.16-39.79Q14.11-38.96 13.96-38.16 13.82-37.35 13.48-36.62L13.48-36.62Q13.57-36.38 13.57-36.13L13.57-36.13 13.57-35.64Q13.57-34.96 13.45-34.33 13.33-33.69 13.18-33.03 13.04-32.37 12.94-31.74 12.84-31.1 12.94-30.47L12.94-30.47Q12.79-30.22 12.65-30.1 12.5-29.98 12.45-29.74L12.45-29.74 12.35-28.81Q12.26-28.27 12.18-27.76 12.11-27.25 12.01-26.71L12.01-26.71Q11.67-25.24 11.25-23.78 10.84-22.31 10.84-20.75L10.84-20.75 10.84-20.46Q10.4-19.78 10.16-18.77 9.91-17.77 10.01-16.94L10.01-16.94Q9.47-15.53 8.98-14.16 8.5-12.79 8.5-11.33L8.5-11.33Q8.5-11.08 8.52-10.82 8.54-10.55 8.59-10.3L8.59-10.3Q8.2-9.33 8.11-8.33 8.01-7.32 8.01-6.35L8.01-6.35Q8.01-5.66 8.08-4.76 8.15-3.86 8.33-2.91 8.5-1.95 8.74-1.07 8.98-0.2 9.28 0.34L9.28 0.34Q10.4 2.15 12.23 3.2 14.06 4.25 16.11 4.54L16.11 4.54Q16.94 4.25 17.46 4.2 17.97 4.15 18.9 4.2L18.9 4.2Q19.68 3.81 20.48 3.61 21.29 3.42 22.12 3.17L22.12 3.17Q22.36 3.08 22.63 2.98 22.9 2.88 23.1 2.78L23.1 2.78Q23.34 2.69 23.63 2.34 23.93 2 24.17 1.76L24.17 1.76Q25.2 1.46 26.12 0.95 27.05 0.44 27.93-0.1L27.93-0.1 29.74-1.17Q30.66-1.71 31.69-2.1L31.69-2.1Q32.08-2.25 32.15-2.51 32.23-2.78 32.42-3.17L32.42-3.17Q32.52-3.08 32.71-3.08L32.71-3.08Q33.3-3.08 33.54-3.44 33.79-3.81 34.13-4.2L34.13-4.2Q34.77-4.3 35.35-4.57 35.94-4.83 36.23-5.42L36.23-5.42Q37.45-5.66 38.38-6.3 39.31-6.93 40.19-7.69 41.06-8.45 41.94-9.16 42.82-9.86 43.95-10.3L43.95-10.3Q44.09-10.55 44.14-10.74 44.19-10.94 44.29-11.18L44.29-11.18Q45.12-11.28 45.61-11.65 46.09-12.01 46.73-12.4L46.73-12.4Q48.1-12.26 48.68-11.18Z" opacity="1" transform="matrix(1,0,0,1,0,0)" fill="#000000" class="wordmark-text-0" data-fill-palette-color="primary" id="text-0"></path></svg></g></svg></g></svg></g></svg></g></svg></g></svg></g></svg></g></svg></g><defs></defs></svg><rect width="320" height="360" fill="none" stroke="none" visibility="hidden"></rect></g></svg></g></svg>