<svg xmlns="http://www.w3.org/2000/svg" version="1.1" xmlns:xlink="http://www.w3.org/1999/xlink" xmlns:svgjs="http://svgjs.dev/svgjs" width="1000" height="1125" viewBox="0 0 1000 1125"><g transform="matrix(1,0,0,1,1.7053025658242404e-13,0)"><svg viewBox="0 0 320 360" data-background-color="#333366" preserveAspectRatio="xMidYMid meet" height="1125" width="1000" xmlns="http://www.w3.org/2000/svg" xmlns:xlink="http://www.w3.org/1999/xlink"><g id="tight-bounds" transform="matrix(1,0,0,1,0,0)"><svg viewBox="0 0 320 360" height="360" width="320"><g><svg></svg></g><g><svg viewBox="0 0 320 360" height="360" width="320"><g><path xmlns="http://www.w3.org/2000/svg" d="M20.961 227.22l3.726 4.658-1.863-6.056c-0.466-2.795-3.726 0.466-1.863 1.398M25.153 224.425c1.397 2.329 2.795 4.658 2.795 6.987 0 3.261 2.795 4.658 5.123 5.589-3.261-3.726-5.124-13.974-7.918-12.576M204.017 26.929c7.918 0 15.371-0.932 23.756 0.931 20.495 5.124 37.729 15.371 49.374 29.811l32.606 52.169c1.397 13.042 4.192 27.482 3.726 43.319 3.261 0 2.795-4.658 6.521-5.59-3.726 9.316-5.59 20.961-6.521 34.469-2.329-7.453 0-18.632 0.466-24.687-3.261 5.124-5.124 1.397-5.124-0.932 0.466-3.726-1.397-3.261-2.795-4.658-5.124-4.658-8.384-9.782-12.11-17.7 2.329-6.055 2.795-14.905-4.658-19.563-2.329-1.397-5.124-3.726-6.521-7.453-1.863-5.124-5.124-11.179-4.193-19.097 0.466-2.329-6.987 5.124-11.179 1.863-18.166-12.576-36.332-27.016-58.224-39.127-11.645 0-20.029-4.192-24.221-9.316-3.726-4.658-0.932-10.713 4.658-11.179 3.261 0 6.987-0.932 9.782 0.932 0.466-1.863 2.329-4.192 4.657-4.192M157.904 16.215l0.932 0.466c4.658 0.932 6.987 7.453 12.11 5.124 0 3.261 0.466 6.521-0.466 8.85-1.397 3.726-5.59 3.726-8.85 3.726-31.208-1.863-49.374 11.179-68.471 22.358-5.124 3.261-10.713 5.59-14.906 9.782-20.029 18.632-41.921 35.866-47.045 70.335l-4.192 38.195c-0.466 4.192-5.124 8.384-4.192 13.508l3.26 22.824c-3.261-3.261-5.124 0.932-4.192 2.795 0.466 1.397 2.329 6.055 5.124 1.863 3.726 6.987 7.453 20.495 12.576 26.55 15.837 18.632 36.332 35.4 53.101 52.169 4.192-0.932 7.453-0.932 8.384-3.727 1.397 2.795-1.397 5.59-3.726 6.056 7.453 4.658 15.837 8.85 27.016 9.781 14.44 0.932 27.948 3.261 40.524 6.522 6.521-1.863 13.042-2.795 20.029-3.261 2.329 0 3.726-3.726 6.521-4.658l0.466-4.658c2.795 4.192 2.329-1.397 0.466-4.192 3.261 2.795 4.192 5.124 5.589 6.987 0-1.397 3.726-6.521 3.727-0.466l0.931-6.055c1.397-0.932 1.863 5.124 3.261 0.931 1.397-4.192 4.192-0.932 6.987-2.329-0.932 1.863-0.466 5.59 2.794 3.261l3.727-3.261c2.329 5.59 6.055 3.261 7.918 2.329 20.495-13.042 40.99-28.413 60.553-43.784l-0.466 6.055 2.329-7.453c2.329 2.329 4.192 0.466 5.124-0.931 2.795-4.658 6.521-9.316 12.577-13.508-7.453 20.029-16.303 35.866-27.482 48.908l-4.658 5.59c0 3.261-0.932 7.453-4.658 7.918-1.863 0.466-5.59-0.932-8.384 1.863-1.397 1.863 3.261 5.59-0.466 2.795-3.261-2.329-6.521 0-10.248 0.932-2.795 0.932 1.863 3.726 2.795 5.589 0.932 1.863 1.863 3.726 1.398 6.056l-5.124-5.59c-6.055 3.261-9.782 9.316-14.906 13.974-2.329 1.863-1.397 5.124-1.397 7.918-3.261 0-6.987-0.932-8.85 0.932-1.397 1.863-0.932 4.658-0.932 7.453-4.658-0.466-5.124-7.453-9.315-6.056-4.192 0.932-8.85 1.397-12.577 3.727 2.795 5.59-4.658 2.329-3.726 3.26-6.987-4.192-13.042-7.453-20.495-4.658-15.837-5.124-35.4-2.795-49.84-0.931 0-2.329 0.466-4.658-0.466-5.124-0.932 2.329-3.726 1.397-3.26 1.397-8.85-6.055-17.7-9.782-27.016-14.905-8.384 0.932-16.303-3.261-18.632-5.59-6.521-6.055-13.974-2.795-20.029-4.192-13.042-3.261-17.7-16.769-19.098-26.084-0.932-4.658-4.658-6.521-6.055-6.056-6.055-19.563-15.371-37.263-22.824-55.429-1.863-4.658-1.397-9.316-1.397-14.44 2.329 0.932 4.658 0.466 4.192-2.794-2.329-15.371-7.918-27.016-13.974-38.195 3.261-15.837 3.726-34.469 11.179-48.443 6.521-12.576 18.632-19.098 27.016-29.811 2.795-3.726 2.795-8.85 5.59-12.11 9.316-9.316 18.632-19.098 28.879-27.482 4.658-3.726 10.247 0 17.234-1.397 2.329-8.384 11.645-15.837 20.495-13.508 3.726 0.932 11.179-8.85 13.508-9.782 3.726-1.397 1.863 3.726 1.863 6.987 8.85-6.987 20.961-10.713 32.14-14.906" fill="#ffffff" fill-rule="nonzero" stroke="none" stroke-width="1" stroke-linecap="butt" stroke-linejoin="miter" stroke-miterlimit="10" stroke-dasharray="" stroke-dashoffset="0" font-family="none" font-weight="none" font-size="none" text-anchor="none" style="mix-blend-mode: normal" data-fill-palette-color="tertiary"></path></g><g transform="matrix(1,0,0,1,64.00000000000001,140.37211835616438)"><svg viewBox="0 0 191.99999999999997 79.25576328767123" height="79.25576328767123" width="191.99999999999997"><g><svg viewBox="0 0 191.99999999999997 79.25576328767123" height="79.25576328767123" width="191.99999999999997"><g><svg viewBox="0 0 192.00000000000003 79.25576328767124" height="79.25576328767123" width="191.99999999999997"><g><svg viewBox="0 0 192.00000000000003 79.25576328767124" height="79.25576328767124" width="192.00000000000003"><g id="textblocktransform"><svg viewBox="0 0 192.00000000000003 79.25576328767124" height="79.25576328767124" width="192.00000000000003" id="textblock"><g><svg viewBox="0 0 192.00000000000003 44.93150684931508" height="44.93150684931508" width="192.00000000000003"><g transform="matrix(1,0,0,1,0,0)"><svg width="192.00000000000003" viewBox="2.9000000953674316 -40.5 175.1800079345703 41" height="44.93150684931508" data-palette-color="#ffffff"><path d="M11 0L2.9 0 2.9-40.5 11-40.5 11 0ZM24.45 0L16.3 0 16.3-28.9 24.45-28.9 24.45 0ZM24.45-33.8L16.25-33.8 16.25-39.45 24.45-39.45 24.45-33.8ZM43.84 0.5L43.84 0.5Q42.25 0.5 40.67-0.23 39.09-0.95 37.65-2.2L37.65-2.2 37.65 0 29.5 0 29.5-40.5 37.65-40.5 37.65-26.8Q39.15-28.1 40.77-28.75 42.4-29.4 43.95-29.4L43.95-29.4Q45.59-29.4 46.77-28.75 47.95-28.1 48.7-26.93 49.45-25.75 49.8-24.2 50.15-22.65 50.15-20.9L50.15-20.9 50.15-8.45Q50.15-5.75 49.42-3.75 48.7-1.75 47.3-0.63 45.89 0.5 43.84 0.5ZM39.9-4.75L39.9-4.75Q40.7-4.75 41.15-5.2 41.59-5.65 41.8-6.38 42-7.1 42-8L42-8 42-21.5Q42-22.35 41.8-23.03 41.59-23.7 41.17-24.1 40.75-24.5 40-24.5L40-24.5Q39.34-24.5 38.77-24.23 38.2-23.95 37.65-23.55L37.65-23.55 37.65-5.55Q38.2-5.2 38.77-4.98 39.34-4.75 39.9-4.75ZM60.74 0.5L60.74 0.5Q58.54 0.5 57.04-0.55 55.54-1.6 54.79-3.23 54.04-4.85 54.04-6.55L54.04-6.55Q54.04-9.25 55.12-11.1 56.19-12.95 57.94-14.2 59.69-15.45 61.79-16.32 63.89-17.2 65.94-17.9L65.94-17.9 65.94-20.8Q65.94-21.55 65.79-22.13 65.64-22.7 65.29-23.03 64.94-23.35 64.24-23.35L64.24-23.35Q63.54-23.35 63.17-23.05 62.79-22.75 62.64-22.23 62.49-21.7 62.44-21.05L62.44-21.05 62.24-18.95 54.64-19.25Q54.89-24.45 57.42-26.93 59.94-29.4 64.99-29.4L64.99-29.4Q69.39-29.4 71.57-26.98 73.74-24.55 73.74-20.7L73.74-20.7 73.74-7.2Q73.74-5.4 73.82-4.05 73.89-2.7 74.02-1.7 74.14-0.7 74.24 0L74.24 0 66.94 0Q66.79-1.15 66.59-2.5 66.39-3.85 66.29-4.1L66.29-4.1Q65.79-2.3 64.42-0.9 63.04 0.5 60.74 0.5ZM63.64-5L63.64-5Q64.14-5 64.57-5.2 64.99-5.4 65.34-5.75 65.69-6.1 65.94-6.45L65.94-6.45 65.94-14.35Q64.94-13.75 64.09-13.13 63.24-12.5 62.64-11.75 62.04-11 61.72-10.13 61.39-9.25 61.39-8.15L61.39-8.15Q61.39-6.7 61.99-5.85 62.59-5 63.64-5ZM86.59 0L78.59 0 78.59-28.9 86.59-28.9 86.59-26.6Q88.19-28.15 89.92-28.8 91.64-29.45 93.44-29.45L93.44-29.45Q95.19-29.45 96.47-28.58 97.74-27.7 98.39-26L98.39-26Q100.09-27.9 101.97-28.68 103.84-29.45 105.74-29.45L105.74-29.45Q107.44-29.45 108.69-28.63 109.94-27.8 110.64-26.23 111.34-24.65 111.34-22.45L111.34-22.45 111.34 0 103.34 0 103.34-21.6Q103.34-22.8 102.92-23.33 102.49-23.85 101.64-23.85L101.64-23.85Q101.14-23.85 100.39-23.58 99.64-23.3 98.94-22.8L98.94-22.8Q98.94-22.7 98.94-22.63 98.94-22.55 98.94-22.45L98.94-22.45 98.94 0 91.04 0 91.04-21.6Q91.04-22.8 90.59-23.33 90.14-23.85 89.29-23.85L89.29-23.85Q88.74-23.85 88.02-23.58 87.29-23.3 86.59-22.8L86.59-22.8 86.59 0ZM124.69 0L116.59 0 116.59-40.5 124.69-40.5 124.69 0ZM135.88 0.5L135.88 0.5Q133.69 0.5 132.19-0.55 130.69-1.6 129.94-3.23 129.19-4.85 129.19-6.55L129.19-6.55Q129.19-9.25 130.26-11.1 131.34-12.95 133.09-14.2 134.84-15.45 136.94-16.32 139.03-17.2 141.09-17.9L141.09-17.9 141.09-20.8Q141.09-21.55 140.94-22.13 140.78-22.7 140.44-23.03 140.09-23.35 139.38-23.35L139.38-23.35Q138.69-23.35 138.31-23.05 137.94-22.75 137.78-22.23 137.63-21.7 137.59-21.05L137.59-21.05 137.38-18.95 129.78-19.25Q130.03-24.45 132.56-26.93 135.09-29.4 140.13-29.4L140.13-29.4Q144.53-29.4 146.71-26.98 148.88-24.55 148.88-20.7L148.88-20.7 148.88-7.2Q148.88-5.4 148.96-4.05 149.03-2.7 149.16-1.7 149.28-0.7 149.38 0L149.38 0 142.09 0Q141.94-1.15 141.74-2.5 141.53-3.85 141.44-4.1L141.44-4.1Q140.94-2.3 139.56-0.9 138.19 0.5 135.88 0.5ZM138.78-5L138.78-5Q139.28-5 139.71-5.2 140.13-5.4 140.49-5.75 140.84-6.1 141.09-6.45L141.09-6.45 141.09-14.35Q140.09-13.75 139.24-13.13 138.38-12.5 137.78-11.75 137.19-11 136.86-10.13 136.53-9.25 136.53-8.15L136.53-8.15Q136.53-6.7 137.13-5.85 137.74-5 138.78-5ZM161.83 0L153.73 0 153.73-40.5 161.83-40.5 161.83-18.05 168.93-28.9 178.08-28.9 170.38-17.05 177.98 0 169.08 0 163.98-13.75 161.83-11 161.83 0Z" opacity="1" transform="matrix(1,0,0,1,0,0)" fill="#ffffff" class="wordmark-text-0" data-fill-palette-color="primary" id="text-0"></path></svg></g></svg></g><g transform="matrix(1,0,0,1,0,51.48809205479453)"><svg viewBox="0 0 192.00000000000003 27.76767123287672" height="27.76767123287672" width="192.00000000000003"><g transform="matrix(1,0,0,1,0,0)"><svg width="192.00000000000003" viewBox="1.2699999809265137 -40.15999984741211 282.25 40.81999969482422" height="27.76767123287672" data-palette-color="#ff6699"><path d="M16.55-17.5L16.55-17.5Q16.26-17.55 15.7-17.82L15.7-17.82Q13.67-18.75 12.52-18.75 11.38-18.75 10.12-17.32 8.86-15.89 8.86-14.75L8.86-14.75 8.86-3.71Q8.86-1.88 10.99-1.27L10.99-1.27Q11.91-1.03 12.72-0.92 13.53-0.81 13.76-0.71 13.99-0.61 13.99-0.33 13.99-0.05 13.75 0L13.75 0 1.51 0Q1.27-0.05 1.27-0.34L1.27-0.34Q1.27-0.78 2.42-0.93L2.42-0.93Q5.05-1.32 5.05-3.71L5.05-3.71 5.05-16.63Q5.05-17.65 3.93-18.04L3.93-18.04Q3.44-18.21 2.88-18.32 2.32-18.43 1.99-18.53 1.66-18.63 1.57-18.71 1.49-18.8 1.49-19.08 1.49-19.36 1.86-19.56L1.86-19.56 8.08-22.49Q8.37-22.63 8.45-22.63L8.45-22.63Q8.86-22.63 8.86-22.05L8.86-22.05 8.86-18.09Q8.86-17.8 9.01-17.8L9.01-17.8Q9.2-17.8 10.01-18.95L10.01-18.95Q12.33-22.19 13.84-22.19L13.84-22.19Q14.7-22.19 16.47-21.51 18.24-20.83 18.24-20.36L18.24-20.36Q18.24-19.8 17.68-18.65 17.11-17.5 16.55-17.5ZM57.23-12.87L43.07-12.87Q42.65-12.87 42.65-11.08L42.65-11.08Q42.65-7.3 44.9-4.74 47.14-2.17 50.48-2.17 53.81-2.17 56.89-5.05L56.89-5.05Q56.93-5.1 57.01-5.1L57.01-5.1 57.13-5.1Q57.28-5.1 57.41-4.87 57.54-4.64 57.67-4.57L57.67-4.57Q54.83-1.12 51 0.2L51 0.2Q49.68 0.66 48.02 0.66 46.36 0.66 44.65-0.26 42.94-1.17 41.72-2.66L41.72-2.66Q39.14-5.76 39.14-10.39 39.14-15.01 41.96-18.82 44.78-22.63 49.71-22.63L49.71-22.63Q53.25-22.63 55.49-19.47 57.74-16.31 57.74-13.92L57.74-13.92Q57.74-12.87 57.23-12.87L57.23-12.87ZM43.34-15.5L43.34-15.21Q43.34-14.75 43.77-14.75L43.77-14.75 52.98-14.75Q53.61-14.75 53.61-15.5L53.61-15.5Q53.61-17.26 52.04-19.1 50.46-20.95 48.58-20.95L48.58-20.95Q46.75-20.95 45.25-19.29 43.75-17.63 43.34-15.5L43.34-15.5ZM90.04-0.93L90.04-0.93Q91.19-0.78 91.19-0.34L91.19-0.34Q91.19-0.05 90.94 0L90.94 0 80.05 0Q79.81-0.05 79.81-0.34L79.81-0.34Q79.81-0.78 80.96-0.93L80.96-0.93Q83.59-1.32 83.59-3.71L83.59-3.71 83.59-34.16Q83.59-35.18 82.47-35.57L82.47-35.57Q81.98-35.74 81.42-35.85 80.86-35.96 80.53-36.06 80.2-36.16 80.12-36.24 80.03-36.33 80.03-36.61 80.03-36.89 80.4-37.08L80.4-37.08 86.62-40.01Q86.91-40.16 86.99-40.16L86.99-40.16Q87.4-40.16 87.4-39.58L87.4-39.58 87.4-3.71Q87.4-1.32 90.04-0.93ZM123.83 0L112.94 0Q112.7-0.05 112.7-0.34L112.7-0.34Q112.7-0.78 113.84-0.93L113.84-0.93Q116.48-1.32 116.48-3.71L116.48-3.71 116.48-16.63Q116.48-17.65 115.36-18.04L115.36-18.04Q114.87-18.21 114.31-18.32 113.75-18.43 113.42-18.53 113.09-18.63 113-18.71 112.92-18.8 112.92-19.08 112.92-19.36 113.28-19.56L113.28-19.56 119.51-22.49Q119.8-22.63 119.87-22.63L119.87-22.63Q120.29-22.63 120.29-22.05L120.29-22.05 120.29-3.71Q120.29-1.32 122.93-0.93L122.93-0.93Q124.07-0.78 124.07-0.42 124.07-0.05 123.83 0L123.83 0ZM118.03-29.49Q117.02-29.49 116.25-30.13 115.48-30.76 115.48-31.9 115.48-33.03 116.21-33.69 116.94-34.35 117.96-34.35 118.97-34.35 119.67-33.57 120.36-32.79 120.36-31.88 120.36-30.98 119.7-30.24 119.04-29.49 118.03-29.49ZM161.28-4.03Q161.28-3.39 161.88-3.02 162.48-2.64 163.26-2.64 164.04-2.64 164.56-3.04 165.09-3.44 165.28-3.44 165.48-3.44 165.48-2.92 165.48-2.39 164.99-2.03L164.99-2.03Q161.33 0.66 160.04 0.66L160.04 0.66Q158.47 0.66 157.5-2.59L157.5-2.59Q157.42-2.83 157.37-2.81L157.37-2.81Q154.35-0.54 153.57-0.07L153.57-0.07Q151.56 1.07 149.55 0.29 147.54-0.49 146.63-2.29L146.63-2.29Q146.19-3.22 146.19-4.27L146.19-4.27Q146.19-6.35 147.73-7.57 149.27-8.79 153.59-9.91L153.59-9.91Q155.05-10.3 156.2-10.91 157.35-11.52 157.41-11.69 157.47-11.87 157.47-12.01L157.47-12.01 157.47-16.7Q157.47-19.46 155.32-20.58L155.32-20.58Q154.62-20.95 153.63-20.95 152.64-20.95 151.62-20.17 150.61-19.38 150.61-17.94L150.61-17.94 150.73-16.99Q150.59-16.7 148.98-16.02 147.36-15.33 147.12-15.28L147.12-15.28Q146.73-15.28 146.73-16.22 146.73-17.16 147.29-18.31 147.85-19.46 148.88-20.41L148.88-20.41Q151.27-22.63 154.35-22.63 157.42-22.63 159.35-20.94 161.28-19.24 161.28-16.89L161.28-16.89 161.28-4.03ZM150.03-4.74Q150.03-3.56 150.93-2.7 151.83-1.83 152.99-1.83 154.15-1.83 155.81-2.82 157.47-3.81 157.47-4.86L157.47-4.86 157.47-9.81Q157.47-10.08 157.35-10.08 157.23-10.08 157.18-10.06L157.18-10.06 151.51-7.42Q150.64-6.79 150.33-6.35 150.03-5.91 150.03-4.74ZM192.95-39.58L192.95-20.43Q192.95-19.68 193.3-19.68 193.65-19.68 196.41-21.26L196.41-21.26Q199.64-22.63 201.32-22.63 203-22.63 204.54-21.66 206.08-20.68 207.15-19.09L207.15-19.09Q209.43-15.82 209.43-11.16 209.43-6.49 206.19-2.92 202.96 0.66 197.66 0.66L197.66 0.66Q194.22 0.66 191.31-0.17L191.31-0.17Q190.46-0.42 189.86-0.56 189.26-0.71 189.2-0.87 189.14-1.03 189.14-1.25L189.14-1.25 189.14-34.16Q189.14-35.18 188.01-35.57L188.01-35.57Q187.53-35.74 186.96-35.85 186.4-35.96 186.07-36.06 185.74-36.16 185.66-36.24 185.57-36.33 185.57-36.61 185.57-36.89 185.94-37.08L185.94-37.08 192.16-40.01Q192.46-40.16 192.53-40.16L192.53-40.16Q192.95-40.16 192.95-39.58L192.95-39.58ZM198.12-19.65L198.12-19.65Q195.95-19.65 193.24-18.09L193.24-18.09Q192.95-17.92 192.95-17.5L192.95-17.5 192.95-5.96Q193.19-3.74 194.87-2.49 196.56-1.25 198.56-1.25L198.56-1.25Q202.08-1.25 203.99-4.03 205.91-6.81 205.91-10.38 205.91-13.94 203.96-16.8 202-19.65 198.12-19.65ZM242.02-0.93L242.02-0.93Q243.17-0.78 243.17-0.34L243.17-0.34Q243.17-0.05 242.92 0L242.92 0 232.03 0Q231.79-0.05 231.79-0.34L231.79-0.34Q231.79-0.78 232.94-0.93L232.94-0.93Q235.57-1.32 235.57-3.71L235.57-3.71 235.57-34.16Q235.57-35.18 234.45-35.57L234.45-35.57Q233.96-35.74 233.4-35.85 232.84-35.96 232.51-36.06 232.18-36.16 232.09-36.24 232.01-36.33 232.01-36.61 232.01-36.89 232.37-37.08L232.37-37.08 238.6-40.01Q238.89-40.16 238.97-40.16L238.97-40.16Q239.38-40.16 239.38-39.58L239.38-39.58 239.38-3.71Q239.38-1.32 242.02-0.93ZM283.01-12.87L268.85-12.87Q268.43-12.87 268.43-11.08L268.43-11.08Q268.43-7.3 270.68-4.74 272.93-2.17 276.26-2.17 279.59-2.17 282.67-5.05L282.67-5.05Q282.72-5.1 282.79-5.1L282.79-5.1 282.91-5.1Q283.06-5.1 283.19-4.87 283.33-4.64 283.45-4.57L283.45-4.57Q280.62-1.12 276.78 0.2L276.78 0.2Q275.47 0.66 273.81 0.66 272.15 0.66 270.44-0.26 268.73-1.17 267.51-2.66L267.51-2.66Q264.92-5.76 264.92-10.39 264.92-15.01 267.74-18.82 270.56-22.63 275.49-22.63L275.49-22.63Q279.03-22.63 281.28-19.47 283.52-16.31 283.52-13.92L283.52-13.92Q283.52-12.87 283.01-12.87L283.01-12.87ZM269.12-15.5L269.12-15.21Q269.12-14.75 269.56-14.75L269.56-14.75 278.76-14.75Q279.4-14.75 279.4-15.5L279.4-15.5Q279.4-17.26 277.82-19.1 276.25-20.95 274.37-20.95L274.37-20.95Q272.54-20.95 271.03-19.29 269.53-17.63 269.12-15.5L269.12-15.5Z" opacity="1" transform="matrix(1,0,0,1,0,0)" fill="#ff6699" class="slogan-text-1" data-fill-palette-color="secondary" id="text-1"></path></svg></g></svg></g></svg></g></svg></g><g></g></svg></g></svg></g></svg></g></svg></g><defs></defs></svg><rect width="320" height="360" fill="none" stroke="none" visibility="hidden"></rect></g></svg></g></svg>